<svg version="1.1" id="Layer_1" xmlns="http://www.w3.org/2000/svg" xmlns:xlink="http://www.w3.org/1999/xlink" x="0px" y="0px"
	 width="100%" viewBox="0 0 239 202" enable-background="new 0 0 239 202" xml:space="preserve">
<path fill="#FCFDFD" opacity="1.000000" stroke="none" 
	d="
M219.000000,203.000000 
	C146.369675,203.000000 73.739365,203.000000 1.054522,203.000000 
	C1.054522,135.736740 1.054522,68.473412 1.054522,1.105042 
	C80.556664,1.105042 160.113510,1.105042 239.835175,1.105042 
	C239.835175,68.333023 239.835175,135.666458 239.835175,203.000000 
	C234.267090,203.000000 228.603256,203.000000 222.433624,202.579025 
	C221.950180,198.072586 221.972534,193.987122 222.025848,189.559937 
	C222.356247,188.410904 222.655701,187.603607 223.271713,186.976837 
	C224.222900,188.653519 224.857544,190.149673 225.492188,191.645844 
	C227.169418,184.393875 228.385193,177.410782 224.114822,170.569580 
	C221.367447,167.132324 218.689819,164.039917 215.856735,160.659363 
	C213.561432,158.864227 211.421600,157.357224 209.071991,155.595901 
	C207.874725,154.558670 206.887253,153.775757 206.055435,152.636414 
	C206.639847,150.520874 207.121170,148.772659 207.488907,147.000870 
	C210.065521,134.586411 212.618713,122.167084 215.391907,109.491577 
	C216.493835,105.349533 217.547714,101.489990 218.139160,97.560829 
	C218.263077,96.737602 216.683517,95.657967 215.643387,94.601776 
	C215.103043,94.318649 214.808243,94.130241 214.519897,93.536751 
	C214.370102,90.701256 214.213837,88.270844 214.011658,85.126579 
	C212.313644,87.671936 211.165787,89.392586 209.707794,90.961487 
	C207.661423,89.648148 205.925171,88.486565 203.613937,86.940292 
	C209.052216,84.107681 213.765015,81.345367 218.736359,79.175354 
	C221.873459,77.805984 223.203064,75.727951 223.875595,72.575951 
	C227.588669,55.173737 231.422440,37.797260 235.224197,20.414005 
	C237.256760,11.120169 232.867828,5.440054 223.450058,5.431318 
	C186.290482,5.396847 149.130859,5.413178 111.971268,5.432984 
	C110.634811,5.433697 109.298477,5.668901 107.194008,5.867192 
	C112.197037,12.475182 116.801476,18.165758 120.901855,24.198902 
	C122.216644,26.133415 123.119133,29.168379 122.652336,31.369480 
	C116.442390,60.651802 109.951553,89.874535 103.538429,119.113800 
	C100.375725,133.533432 97.228851,147.956528 93.972305,162.846786 
	C96.292305,162.846786 98.104805,162.846786 99.917297,162.846786 
	C123.579468,162.846802 147.242081,162.778000 170.903259,162.931931 
	C173.936615,162.951675 176.962433,164.129929 180.261383,164.986877 
	C182.340225,166.141495 184.149445,167.080704 186.166397,168.291321 
	C189.222992,170.121002 192.071838,171.679260 195.097290,173.514099 
	C197.486374,175.266129 199.698853,176.741577 201.887421,178.480804 
	C201.796143,179.089340 201.728790,179.434143 201.251755,179.761230 
	C198.872101,180.781494 194.953537,177.967316 194.533295,182.880081 
	C191.247192,178.182968 186.578522,178.565430 182.015656,179.226379 
	C180.974075,179.377274 179.395462,180.934479 179.340118,181.916351 
	C179.064178,186.810898 179.214005,191.729462 179.214005,198.047989 
	C185.856552,194.621384 191.156281,191.769745 194.650085,186.974518 
	C194.532654,190.721649 194.532654,193.951553 194.532654,197.534927 
	C199.128601,197.190262 202.838028,196.912094 207.081009,196.593903 
	C206.851898,194.788086 206.225098,193.264633 206.588776,192.033875 
	C207.463333,189.074158 204.451996,185.959686 207.288422,183.175369 
	C207.485458,183.169083 207.876129,183.222946 207.917938,183.673569 
	C207.959732,188.396912 207.959732,192.669647 207.959732,198.496307 
	C211.128723,196.813492 213.218811,195.703598 215.562561,194.459015 
	C216.185883,195.328232 217.129593,196.644226 218.084122,198.328873 
	C218.396622,200.131683 218.698318,201.565842 219.000000,203.000000 
M149.000458,196.916809 
	C151.462158,196.668121 153.923126,196.224472 156.385712,196.215424 
	C160.293594,196.201065 159.988235,194.002533 159.442902,191.095444 
	C157.279984,191.095444 155.365860,191.095444 152.850494,191.095444 
	C152.850494,186.962891 152.850494,183.108688 152.850494,179.059967 
	C150.933167,179.145859 149.628799,179.204300 147.479263,179.153137 
	C146.912811,179.156723 146.346344,179.160294 144.956345,179.167603 
	C141.417343,179.569305 137.878326,179.971008 134.428314,180.362595 
	C134.428314,186.360260 134.428314,191.831558 134.428314,197.459106 
	C138.462524,197.201462 142.069000,196.971130 146.493332,196.874741 
	C147.043930,196.881256 147.594528,196.887772 149.000458,196.916809 
M92.139908,49.650784 
	C92.544472,48.890545 92.949028,48.130302 93.353584,47.370064 
	C93.684464,47.457737 94.015343,47.545410 94.346214,47.633083 
	C93.822815,68.314461 93.299416,88.995834 92.763931,110.154671 
	C80.719948,110.154671 69.374374,110.154671 57.301094,110.154671 
	C68.815208,123.110672 79.752075,135.417130 90.870567,147.927979 
	C91.344131,146.858643 91.807404,146.151810 91.977234,145.380402 
	C100.303345,107.562164 108.634102,69.744827 116.808662,31.893776 
	C117.169968,30.220827 116.589127,27.871313 115.579018,26.456923 
	C111.133125,20.231594 106.497826,14.126970 101.624893,8.231772 
	C100.457390,6.819353 98.143517,5.689080 96.307434,5.612357 
	C89.155930,5.313523 81.972015,5.743077 74.825638,5.388280 
	C71.009933,5.198842 69.384895,6.597441 67.946838,9.996913 
	C51.137051,49.734127 34.149868,89.396278 17.227283,129.085815 
	C12.493622,140.187958 7.818000,151.314850 2.990459,162.726562 
	C17.527124,162.726562 31.488220,162.726562 45.730225,162.726562 
	C50.243992,152.063965 54.618595,141.313339 59.385250,130.739471 
	C60.710678,127.799255 60.289501,126.057343 58.241341,123.796906 
	C52.611172,117.583206 47.236679,111.137856 41.086548,104.001541 
	C50.088772,104.001541 58.023487,103.835022 65.945175,104.083664 
	C69.105949,104.182861 70.599174,103.196617 71.770180,100.237968 
	C78.365601,83.574135 85.185501,66.999153 92.139908,49.650784 
M68.118103,195.924118 
	C72.105568,194.083618 75.708344,192.136490 71.309494,187.170471 
	C71.035286,186.860901 71.618690,185.764832 71.841316,185.046509 
	C73.039932,181.179214 71.157280,178.899963 67.589699,178.942169 
	C60.114296,179.030624 52.646137,179.731735 45.117180,180.184738 
	C45.117180,186.260986 45.117180,191.697845 45.117180,197.471848 
	C52.696846,197.001755 60.010044,196.548203 68.118103,195.924118 
M25.846357,197.240494 
	C28.001858,196.360703 30.157358,195.480927 32.286800,194.611771 
	C33.519478,195.230499 35.439548,196.981125 37.158897,196.802277 
	C38.477234,196.665131 40.087021,194.262695 40.612694,192.571136 
	C41.922314,188.356979 42.687298,183.973572 43.747597,179.321747 
	C41.743633,179.321747 40.205078,179.321747 38.657139,179.321747 
	C37.998264,182.304169 37.404312,184.992722 36.558670,188.820557 
	C35.659355,185.674866 35.260204,183.556702 34.416248,181.633759 
	C33.999535,180.684265 32.733498,179.469086 31.903330,179.506866 
	C30.942690,179.550613 29.593348,180.661163 29.204779,181.627167 
	C28.441341,183.525024 28.225885,185.643295 27.567219,188.662781 
	C26.402924,185.036850 25.560955,182.414719 24.631216,179.519257 
	C22.849720,180.060242 21.380680,180.506348 19.469595,181.086685 
	C21.456375,186.751190 23.250273,191.865768 25.846357,197.240494 
M163.302704,181.865005 
	C160.627655,185.677872 159.447052,189.986237 162.443100,193.763657 
	C163.878006,195.572739 167.878616,197.290100 169.578522,196.523621 
	C172.699661,195.116333 175.702637,192.246918 177.402496,189.226013 
	C179.093201,186.221436 178.736526,182.113434 175.263443,179.935928 
	C171.340958,177.476669 167.366653,178.362015 163.302704,181.865005 
M115.031898,183.075256 
	C115.605148,180.067810 114.618126,178.675491 111.355736,179.285172 
	C108.643524,179.792053 105.891052,180.083496 103.154144,180.470688 
	C103.154144,186.307785 103.154144,191.717300 103.154144,197.509750 
	C107.207260,197.208420 110.937492,196.931076 114.693596,196.651825 
	C114.693596,192.119659 114.693596,187.979965 115.031898,183.075256 
M99.811653,192.944458 
	C100.256058,190.721100 101.004112,188.508667 101.084595,186.272217 
	C101.280411,180.831665 99.130394,178.801407 93.678017,178.805374 
	C87.741325,178.809692 87.285309,179.301361 87.190979,185.871597 
	C87.169495,187.368332 87.164551,188.866150 87.194695,190.362610 
	C87.333420,197.248535 89.632393,198.701263 96.048836,195.839493 
	C97.230072,195.312622 98.206375,194.326324 99.811653,192.944458 
M118.166824,180.268738 
	C117.599403,180.857483 116.436607,181.637634 116.554993,182.005875 
	C118.027122,186.584793 119.572540,191.149948 121.390160,195.599762 
	C121.758438,196.501358 123.484070,197.583328 124.323158,197.398483 
	C125.871284,197.057434 128.085297,196.142242 128.511246,194.933823 
	C130.249146,190.003235 131.415543,184.871216 132.808243,179.755508 
	C124.333252,176.981049 127.742584,185.307556 124.463951,187.656143 
	C123.899315,185.834274 123.722046,183.937912 122.769524,182.589005 
	C121.940422,181.414871 120.235817,180.858994 118.166824,180.268738 
z"/>
<path fill="#4BD6FA" opacity="1.000000" stroke="none" 
	d="
M221.994904,189.901657 
	C221.972534,193.987122 221.950180,198.072586 221.963913,202.579025 
	C221.250000,203.000000 220.500000,203.000000 219.375000,203.000000 
	C218.698318,201.565842 218.396622,200.131683 218.428131,198.317474 
	C221.117111,196.957901 222.866257,195.861633 220.801849,192.916245 
	C220.460571,192.429337 221.560837,190.932037 221.994904,189.901657 
z"/>
<path fill="#1A92C9" opacity="1.000000" stroke="none" 
	d="
M215.179382,109.749313 
	C212.618713,122.167084 210.065521,134.586411 207.488907,147.000870 
	C207.121170,148.772659 206.639847,150.520874 205.718262,152.605347 
	C204.151825,152.608398 203.078232,152.286118 201.805023,151.696045 
	C199.737381,150.615219 197.869324,149.802216 195.803253,148.718491 
	C193.736618,147.634155 191.868011,146.820526 189.764862,145.728516 
	C187.921616,144.962067 186.312912,144.473999 184.624924,143.961884 
	C183.070511,153.344650 183.172028,153.572235 190.314240,157.128937 
	C192.079651,157.849380 193.535675,158.431732 195.140564,159.250961 
	C195.849121,159.963623 196.408798,160.439407 196.744354,161.122803 
	C196.302902,161.876999 196.085587,162.423569 195.589325,162.789001 
	C192.873489,161.404297 190.436600,160.200745 187.787125,158.712799 
	C185.410019,157.485184 183.245468,156.541962 179.991745,155.124115 
	C179.991745,159.220200 179.991745,161.995865 179.991745,164.771515 
	C176.962433,164.129929 173.936615,162.951675 170.903259,162.931931 
	C147.242081,162.778000 123.579468,162.846802 99.917297,162.846786 
	C98.104805,162.846786 96.292305,162.846786 93.972305,162.846786 
	C97.228851,147.956528 100.375725,133.533432 103.538429,119.113800 
	C109.951553,89.874535 116.442390,60.651802 122.652336,31.369480 
	C123.119133,29.168379 122.216644,26.133415 120.901855,24.198902 
	C116.801476,18.165758 112.197037,12.475182 107.194008,5.867192 
	C109.298477,5.668901 110.634811,5.433697 111.971268,5.432984 
	C149.130859,5.413178 186.290482,5.396847 223.450058,5.431318 
	C232.867828,5.440054 237.256760,11.120169 235.224197,20.414005 
	C231.422440,37.797260 227.588669,55.173737 223.875595,72.575951 
	C223.203064,75.727951 221.873459,77.805984 218.736359,79.175354 
	C213.765015,81.345367 209.052216,84.107681 203.613937,86.940292 
	C205.925171,88.486565 207.661423,89.648148 209.570190,91.260796 
	C207.170685,94.161552 204.598633,96.611237 201.720093,99.156677 
	C200.230911,100.133202 199.048233,101.013969 197.543655,101.936172 
	C196.145950,102.677650 195.070160,103.377693 193.679474,104.167770 
	C191.901779,105.167870 190.438965,106.077942 188.649277,107.024628 
	C187.547562,107.472786 186.772720,107.884323 185.688034,108.374680 
	C183.918671,109.302475 182.459137,110.151466 180.696518,111.030045 
	C179.569000,111.598785 178.744583,112.137955 177.515854,112.768280 
	C176.562988,112.937508 176.014435,113.015572 175.574783,112.679977 
	C176.486649,108.261032 177.289612,104.255737 178.247269,99.478722 
	C172.706299,102.099106 167.966278,104.340721 162.687408,106.837151 
	C159.979401,97.254425 157.585220,88.136757 154.765564,79.152626 
	C153.771255,75.984520 154.335297,74.455772 157.239365,72.858200 
	C166.422516,67.806412 175.455063,62.478634 184.493347,57.168190 
	C185.845627,56.373653 187.641922,55.297390 187.992264,54.013058 
	C189.583344,48.180111 190.730194,42.225986 192.094498,36.054729 
	C181.481400,36.054729 171.535828,36.054729 161.271454,36.054729 
	C160.453384,39.886009 159.666000,43.591747 158.870438,47.295731 
	C156.838562,56.755959 156.231277,67.067711 144.761017,70.900208 
	C144.524445,70.979248 144.412033,71.429871 143.818924,72.395332 
	C150.505615,84.354401 148.816360,97.100121 145.151199,110.045029 
	C143.139893,117.148697 141.998825,124.498749 140.350616,132.279343 
	C146.104660,132.279343 151.060364,132.279343 156.036560,132.461929 
	C156.057068,132.644516 156.097031,133.010071 155.910797,133.341476 
	C152.225220,140.924881 154.097809,146.700378 162.148560,153.318970 
	C163.429565,154.546417 164.446411,155.683960 165.714157,156.326508 
	C167.049637,157.003357 168.624817,157.207260 170.095261,157.617783 
	C170.397079,156.250229 170.758667,154.892731 170.990219,153.513367 
	C171.923065,147.956223 166.703430,146.900772 163.689041,143.854797 
	C161.372101,140.014786 159.356018,136.330185 157.566895,132.578979 
	C158.110489,132.501694 158.423828,132.529037 158.894958,132.934097 
	C161.031464,135.856415 163.006851,138.439072 165.127197,141.311127 
	C166.848129,143.066666 168.424057,144.532822 170.202942,146.276962 
	C171.873657,147.449036 173.341415,148.343109 174.795868,149.229080 
	C178.439133,143.418640 177.461166,140.431732 170.724991,135.874878 
	C169.636551,135.163666 168.821884,134.580597 167.995316,133.758881 
	C167.983398,133.520203 167.952896,133.043213 168.322266,132.982544 
	C170.091705,133.302811 171.491791,133.683716 173.140656,134.345306 
	C175.599472,134.103485 177.809479,133.580978 180.372223,133.015381 
	C183.164658,131.688446 185.604385,130.404602 188.382874,129.068573 
	C190.142929,128.289322 191.564240,127.562271 193.303253,126.753265 
	C195.425339,125.469963 197.229706,124.268608 199.352615,122.949768 
	C201.266571,121.644287 202.862015,120.456291 204.775604,119.218262 
	C206.407104,118.144691 207.720428,117.121147 209.323517,115.955177 
	C210.774811,114.565620 211.936325,113.318504 213.352051,111.881348 
	C214.130646,111.043983 214.655014,110.396645 215.179382,109.749313 
z"/>
<path fill="#030303" opacity="1.000000" stroke="none" 
	d="
M92.034378,50.022327 
	C85.185501,66.999153 78.365601,83.574135 71.770180,100.237968 
	C70.599174,103.196617 69.105949,104.182861 65.945175,104.083664 
	C58.023487,103.835022 50.088772,104.001541 41.086548,104.001541 
	C47.236679,111.137856 52.611172,117.583206 58.241341,123.796906 
	C60.289501,126.057343 60.710678,127.799255 59.385250,130.739471 
	C54.618595,141.313339 50.243992,152.063965 45.730225,162.726562 
	C31.488220,162.726562 17.527124,162.726562 2.990459,162.726562 
	C7.818000,151.314850 12.493622,140.187958 17.227283,129.085815 
	C34.149868,89.396278 51.137051,49.734127 67.946838,9.996913 
	C69.384895,6.597441 71.009933,5.198842 74.825638,5.388280 
	C81.972015,5.743077 89.155930,5.313523 96.307434,5.612357 
	C98.143517,5.689080 100.457390,6.819353 101.624893,8.231772 
	C106.497826,14.126970 111.133125,20.231594 115.579018,26.456923 
	C116.589127,27.871313 117.169968,30.220827 116.808662,31.893776 
	C108.634102,69.744827 100.303345,107.562164 91.977234,145.380402 
	C91.807404,146.151810 91.344131,146.858643 90.870567,147.927979 
	C79.752075,135.417130 68.815208,123.110672 57.301094,110.154671 
	C69.374374,110.154671 80.719948,110.154671 92.763931,110.154671 
	C93.299416,88.995834 93.822815,68.314461 94.346214,47.633083 
	C94.015343,47.545410 93.684464,47.457737 93.353584,47.370064 
	C92.949028,48.130302 92.544472,48.890545 92.034378,50.022327 
z"/>
<path fill="#090909" opacity="1.000000" stroke="none" 
	d="
M67.720673,196.009369 
	C60.010044,196.548203 52.696846,197.001755 45.117180,197.471848 
	C45.117180,191.697845 45.117180,186.260986 45.117180,180.184738 
	C52.646137,179.731735 60.114296,179.030624 67.589699,178.942169 
	C71.157280,178.899963 73.039932,181.179214 71.841316,185.046509 
	C71.618690,185.764832 71.035286,186.860901 71.309494,187.170471 
	C75.708344,192.136490 72.105568,194.083618 67.720673,196.009369 
M56.660210,185.586029 
	C56.500313,187.170197 56.340420,188.754364 56.180523,190.338531 
	C56.721478,190.352753 57.262436,190.366974 57.803394,190.381195 
	C57.663956,188.786682 57.524517,187.192154 56.660210,185.586029 
M54.492496,192.364929 
	C53.133301,188.452591 51.912102,189.563217 50.342468,192.800293 
	C51.813320,192.800293 52.888313,192.800293 54.492496,192.364929 
M50.197571,185.130981 
	C51.117298,185.763947 52.037022,186.396912 52.956749,187.029861 
	C53.169193,186.573166 53.381638,186.116470 53.594086,185.659775 
	C52.607761,185.324127 51.621441,184.988464 50.197571,185.130981 
z"/>
<path fill="#0D0D0D" opacity="1.000000" stroke="none" 
	d="
M25.445263,197.110413 
	C23.250273,191.865768 21.456375,186.751190 19.469595,181.086685 
	C21.380680,180.506348 22.849720,180.060242 24.631216,179.519257 
	C25.560955,182.414719 26.402924,185.036850 27.567219,188.662781 
	C28.225885,185.643295 28.441341,183.525024 29.204779,181.627167 
	C29.593348,180.661163 30.942690,179.550613 31.903330,179.506866 
	C32.733498,179.469086 33.999535,180.684265 34.416248,181.633759 
	C35.260204,183.556702 35.659355,185.674866 36.558670,188.820557 
	C37.404312,184.992722 37.998264,182.304169 38.657139,179.321747 
	C40.205078,179.321747 41.743633,179.321747 43.747597,179.321747 
	C42.687298,183.973572 41.922314,188.356979 40.612694,192.571136 
	C40.087021,194.262695 38.477234,196.665131 37.158897,196.802277 
	C35.439548,196.981125 33.519478,195.230499 32.286800,194.611771 
	C30.157358,195.480927 28.001858,196.360703 25.445263,197.110413 
z"/>
<path fill="#1C96CB" opacity="1.000000" stroke="none" 
	d="
M222.025848,189.559937 
	C221.560837,190.932037 220.460571,192.429337 220.801849,192.916245 
	C222.866257,195.861633 221.117111,196.957901 218.417328,197.948822 
	C217.129593,196.644226 216.185883,195.328232 215.562561,194.459015 
	C213.218811,195.703598 211.128723,196.813492 207.959732,198.496307 
	C207.959732,192.669647 207.959732,188.396912 207.960220,183.284637 
	C208.982941,181.592041 210.005157,180.738998 211.450287,179.907104 
	C213.568604,179.894943 215.263977,179.861618 217.263107,179.864410 
	C217.770370,179.887695 217.973892,179.874893 218.518936,179.941284 
	C219.320953,180.025757 219.781448,180.031067 220.394592,180.071808 
	C220.547241,180.107254 220.860062,180.126816 220.908051,180.449615 
	C221.622421,182.780365 222.288788,184.788345 222.955154,186.796310 
	C222.655701,187.603607 222.356247,188.410904 222.025848,189.559937 
z"/>
<path fill="#299ACC" opacity="1.000000" stroke="none" 
	d="
M194.767532,186.457275 
	C191.156281,191.769745 185.856552,194.621384 179.214005,198.047989 
	C179.214005,191.729462 179.064178,186.810898 179.340118,181.916351 
	C179.395462,180.934479 180.974075,179.377274 182.015656,179.226379 
	C186.578522,178.565430 191.247192,178.182968 194.574615,183.177185 
	C194.898956,184.387466 194.833237,185.422363 194.767532,186.457275 
z"/>
<path fill="#1F95CA" opacity="1.000000" stroke="none" 
	d="
M163.578064,181.578079 
	C167.366653,178.362015 171.340958,177.476669 175.263443,179.935928 
	C178.736526,182.113434 179.093201,186.221436 177.402496,189.226013 
	C175.702637,192.246918 172.699661,195.116333 169.578522,196.523621 
	C167.878616,197.290100 163.878006,195.572739 162.443100,193.763657 
	C159.447052,189.986237 160.627655,185.677872 163.578064,181.578079 
M171.766129,189.495789 
	C171.528870,187.938232 171.291611,186.380661 171.054352,184.823105 
	C169.723923,185.222626 168.058258,185.275223 167.170654,186.132980 
	C166.478088,186.802231 166.752472,188.472092 166.597168,189.697296 
	C168.150513,189.806076 169.703857,189.914856 171.766129,189.495789 
z"/>
<path fill="#2196CA" opacity="1.000000" stroke="none" 
	d="
M194.650085,186.974518 
	C194.833237,185.422363 194.898956,184.387466 194.923340,183.055450 
	C194.953537,177.967316 198.872101,180.781494 201.646057,179.733185 
	C206.128250,178.016068 207.275040,179.706207 207.091385,183.181656 
	C204.451996,185.959686 207.463333,189.074158 206.588776,192.033875 
	C206.225098,193.264633 206.851898,194.788086 207.081009,196.593903 
	C202.838028,196.912094 199.128601,197.190262 194.532654,197.534927 
	C194.532654,193.951553 194.532654,190.721649 194.650085,186.974518 
z"/>
<path fill="#2296CB" opacity="1.000000" stroke="none" 
	d="
M114.862747,183.457764 
	C114.693596,187.979965 114.693596,192.119659 114.693596,196.651825 
	C110.937492,196.931076 107.207260,197.208420 103.154144,197.509750 
	C103.154144,191.717300 103.154144,186.307785 103.154144,180.470688 
	C105.891052,180.083496 108.643524,179.792053 111.355736,179.285172 
	C114.618126,178.675491 115.605148,180.067810 114.862747,183.457764 
z"/>
<path fill="#2397CB" opacity="1.000000" stroke="none" 
	d="
M99.544464,193.248276 
	C98.206375,194.326324 97.230072,195.312622 96.048836,195.839493 
	C89.632393,198.701263 87.333420,197.248535 87.194695,190.362610 
	C87.164551,188.866150 87.169495,187.368332 87.190979,185.871597 
	C87.285309,179.301361 87.741325,178.809692 93.678017,178.805374 
	C99.130394,178.801407 101.280411,180.831665 101.084595,186.272217 
	C101.004112,188.508667 100.256058,190.721100 99.544464,193.248276 
M92.221069,185.160156 
	C92.221069,187.040222 92.221069,188.920273 92.221069,190.800339 
	C92.716873,191.040115 93.212685,191.279892 93.708488,191.519669 
	C94.710129,190.073929 95.711761,188.628189 96.713394,187.182449 
	C95.345299,186.278687 93.977203,185.374939 92.221069,185.160156 
z"/>
<path fill="#2196CA" opacity="1.000000" stroke="none" 
	d="
M145.675461,196.740799 
	C142.069000,196.971130 138.462524,197.201462 134.428314,197.459106 
	C134.428314,191.831558 134.428314,186.360260 134.428314,180.362595 
	C137.878326,179.971008 141.417343,179.569305 145.460083,179.575882 
	C147.632095,185.211823 142.240250,183.275269 139.834946,185.369751 
	C142.271408,185.832260 143.954910,186.151840 145.584290,186.461151 
	C147.272644,192.282928 140.775803,189.066544 139.619812,192.211731 
	C141.785156,192.211731 143.699829,192.211731 146.140396,192.211731 
	C145.962311,193.946548 145.818878,195.343674 145.675461,196.740799 
z"/>
<path fill="#2397CB" opacity="1.000000" stroke="none" 
	d="
M118.542450,180.149323 
	C120.235817,180.858994 121.940422,181.414871 122.769524,182.589005 
	C123.722046,183.937912 123.899315,185.834274 124.463951,187.656143 
	C127.742584,185.307556 124.333252,176.981049 132.808243,179.755508 
	C131.415543,184.871216 130.249146,190.003235 128.511246,194.933823 
	C128.085297,196.142242 125.871284,197.057434 124.323158,197.398483 
	C123.484070,197.583328 121.758438,196.501358 121.390160,195.599762 
	C119.572540,191.149948 118.027122,186.584793 116.554993,182.005875 
	C116.436607,181.637634 117.599403,180.857483 118.542450,180.149323 
z"/>
<path fill="#2591C2" opacity="1.000000" stroke="none" 
	d="
M214.513443,93.941833 
	C214.808243,94.130241 215.103043,94.318649 215.652115,94.977760 
	C214.271957,98.302864 212.637512,101.157265 210.725021,104.142365 
	C209.627548,105.173912 208.808105,106.074760 207.695877,107.115707 
	C205.930161,108.493217 204.457245,109.730606 202.676880,111.085571 
	C200.912415,112.218575 199.455383,113.234016 197.693985,114.352570 
	C195.579727,115.626656 193.769852,116.797623 191.633270,118.016304 
	C189.837494,118.958321 188.368408,119.852631 186.549713,120.837830 
	C183.457291,122.275742 180.714447,123.622765 177.650223,125.006821 
	C176.198212,125.622467 175.067581,126.201080 173.676666,126.670113 
	C173.249634,126.027733 173.082901,125.494934 173.063904,124.743073 
	C173.469482,124.284058 173.727295,124.044098 174.298462,123.750259 
	C175.735062,123.092545 176.858322,122.488716 178.307739,121.820862 
	C180.174896,120.890762 181.715897,120.024673 183.575745,119.102951 
	C184.999146,118.413422 186.103683,117.779518 187.520355,117.077675 
	C188.915649,116.361214 189.998810,115.712692 191.405914,115.014595 
	C192.954636,114.065910 194.179428,113.166794 195.733643,112.230553 
	C197.501129,111.221962 198.939209,110.250496 200.677429,109.177567 
	C202.320602,108.053589 203.663666,107.031075 205.309937,105.868027 
	C208.579926,101.798943 211.546677,97.870384 214.513443,93.941833 
z"/>
<path fill="#2698CC" opacity="1.000000" stroke="none" 
	d="
M148.324432,179.262741 
	C149.628799,179.204300 150.933167,179.145859 152.850494,179.059967 
	C152.850494,183.108688 152.850494,186.962891 152.850494,191.095444 
	C155.365860,191.095444 157.279984,191.095444 159.442902,191.095444 
	C159.988235,194.002533 160.293594,196.201065 156.385712,196.215424 
	C153.923126,196.224472 151.462158,196.668121 148.483917,196.452240 
	C148.086411,190.412689 148.205429,184.837723 148.324432,179.262741 
z"/>
<path fill="#747677" opacity="1.000000" stroke="none" 
	d="
M214.519897,93.536751 
	C211.546677,97.870384 208.579926,101.798943 204.948563,105.795723 
	C203.531509,103.596275 202.779053,101.328598 202.026611,99.060928 
	C204.598633,96.611237 207.170685,94.161552 209.880341,91.412552 
	C211.165787,89.392586 212.313644,87.671936 214.011658,85.126579 
	C214.213837,88.270844 214.370102,90.701256 214.519897,93.536751 
z"/>
<path fill="#34CAF4" opacity="1.000000" stroke="none" 
	d="
M220.860077,180.126816 
	C220.860062,180.126816 220.547241,180.107254 220.352386,179.715240 
	C218.018280,176.590210 215.879059,173.857193 214.062958,170.870239 
	C214.928131,167.393356 215.470169,164.170441 216.012207,160.947510 
	C218.689819,164.039917 221.367447,167.132324 223.805878,170.816986 
	C222.664459,174.315125 221.762268,177.220978 220.860077,180.126816 
z"/>
<path fill="#2BB5E3" opacity="1.000000" stroke="none" 
	d="
M201.911346,178.217041 
	C199.698853,176.741577 197.486374,175.266129 195.121643,173.026337 
	C195.667511,169.318161 196.365631,166.374313 197.339691,163.528214 
	C199.429260,164.692078 201.242859,165.758179 203.040039,167.282074 
	C202.652847,171.232285 202.282104,174.724655 201.911346,178.217041 
z"/>
<path fill="#2FBEEB" opacity="1.000000" stroke="none" 
	d="
M215.856735,160.659363 
	C215.470169,164.170441 214.928131,167.393356 213.737885,170.813721 
	C211.042084,169.345932 208.994492,167.680695 207.245834,165.737762 
	C208.123779,162.256775 208.702789,159.053497 209.281799,155.850204 
	C211.421600,157.357224 213.561432,158.864227 215.856735,160.659363 
z"/>
<path fill="#2FBEEB" opacity="1.000000" stroke="none" 
	d="
M201.887421,178.480804 
	C202.282104,174.724655 202.652847,171.232285 203.364716,167.393768 
	C206.191101,168.928589 208.676376,170.809555 211.004669,173.047882 
	C210.907593,175.565491 210.967499,177.725739 211.027374,179.885956 
	C210.005157,180.738998 208.982941,181.592041 207.918427,182.834015 
	C207.876129,183.222946 207.485458,183.169083 207.288422,183.175369 
	C207.275040,179.706207 206.128250,178.016068 202.055725,179.750885 
	C201.728790,179.434143 201.796143,179.089340 201.887421,178.480804 
z"/>
<path fill="#23A9DA" opacity="1.000000" stroke="none" 
	d="
M197.063751,163.430450 
	C196.365631,166.374313 195.667511,169.318161 194.945038,172.749786 
	C192.071838,171.679260 189.222992,170.121002 186.507111,168.101227 
	C187.093292,164.758881 187.546494,161.878036 187.999695,158.997192 
	C190.436600,160.200745 192.873489,161.404297 195.904312,162.863464 
	C196.686752,163.222870 196.875259,163.326660 197.063751,163.430450 
z"/>
<path fill="#2BB5E3" opacity="1.000000" stroke="none" 
	d="
M209.071991,155.595901 
	C208.702789,159.053497 208.123779,162.256775 206.931976,165.656708 
	C204.504761,164.743546 202.690369,163.633759 200.907440,162.042206 
	C201.294159,158.361588 201.649399,155.162704 202.004623,151.963837 
	C203.078232,152.286118 204.151825,152.608398 205.562607,152.961761 
	C206.887253,153.775757 207.874725,154.558670 209.071991,155.595901 
z"/>
<path fill="#1E9ED2" opacity="1.000000" stroke="none" 
	d="
M187.787125,158.712799 
	C187.546494,161.878036 187.093292,164.758881 186.299362,167.829819 
	C184.149445,167.080704 182.340225,166.141495 180.261383,164.986893 
	C179.991745,161.995865 179.991745,159.220200 179.991745,155.124115 
	C183.245468,156.541962 185.410019,157.485184 187.787125,158.712799 
z"/>
<path fill="#3ED4FB" opacity="1.000000" stroke="none" 
	d="
M220.908066,180.449615 
	C221.762268,177.220978 222.664459,174.315125 223.875610,171.161865 
	C228.385193,177.410782 227.169418,184.393875 225.492188,191.645844 
	C224.857544,190.149673 224.222900,188.653519 223.271713,186.976837 
	C222.288788,184.788345 221.622421,182.780365 220.908066,180.449615 
z"/>
<path fill="#6F7172" opacity="1.000000" stroke="none" 
	d="
M211.003082,104.011673 
	C212.637512,101.157265 214.271957,98.302864 215.897659,95.072479 
	C216.683517,95.657967 218.263077,96.737602 218.139160,97.560829 
	C217.547714,101.489990 216.493835,105.349533 215.391907,109.491570 
	C214.655014,110.396645 214.130646,111.043983 213.059952,111.631363 
	C212.010117,109.051498 211.506592,106.531586 211.003082,104.011673 
z"/>
<path fill="#BBDFEF" opacity="1.000000" stroke="none" 
	d="
M147.901855,179.207947 
	C148.205429,184.837723 148.086411,190.412689 148.056259,196.440979 
	C147.594528,196.887772 147.043930,196.881256 146.084396,196.807770 
	C145.818878,195.343674 145.962311,193.946548 146.140396,192.211731 
	C143.699829,192.211731 141.785156,192.211731 139.619812,192.211731 
	C140.775803,189.066544 147.272644,192.282928 145.584290,186.461151 
	C143.954910,186.151840 142.271408,185.832260 139.834946,185.369751 
	C142.240250,183.275269 147.632095,185.211823 145.871857,179.574005 
	C146.346344,179.160294 146.912811,179.156723 147.901855,179.207947 
z"/>
<path fill="#FBFDFE" opacity="1.000000" stroke="none" 
	d="
M156.016052,132.279343 
	C151.060364,132.279343 146.104660,132.279343 140.350616,132.279343 
	C141.998825,124.498749 143.139893,117.148697 145.151199,110.045029 
	C148.816360,97.100121 150.505615,84.354401 143.818924,72.395332 
	C144.412033,71.429871 144.524445,70.979248 144.761017,70.900208 
	C156.231277,67.067711 156.838562,56.755959 158.870438,47.295731 
	C159.666000,43.591747 160.453384,39.886009 161.271454,36.054729 
	C171.535828,36.054729 181.481400,36.054729 192.094498,36.054729 
	C190.730194,42.225986 189.583344,48.180111 187.992264,54.013058 
	C187.641922,55.297390 185.845627,56.373653 184.493347,57.168190 
	C175.455063,62.478634 166.422516,67.806412 157.239365,72.858200 
	C154.335297,74.455772 153.771255,75.984520 154.765564,79.152626 
	C157.585220,88.136757 159.979401,97.254425 162.687408,106.837151 
	C167.966278,104.340721 172.706299,102.099106 178.247269,99.478722 
	C177.289612,104.255737 176.486649,108.261032 175.352417,112.808594 
	C174.312988,113.844177 173.604843,114.337479 172.569672,114.908913 
	C170.833740,115.677589 169.424820,116.368126 167.642471,117.083717 
	C162.898636,118.217987 162.020584,121.077385 163.567078,124.906342 
	C164.741409,127.813873 166.764160,127.726791 169.298660,125.892471 
	C170.388626,125.520691 171.180664,125.265152 171.979645,125.368767 
	C170.576553,127.978821 169.166504,130.229721 167.396881,132.396393 
	C164.617218,129.199173 162.197128,126.086174 159.343292,122.415268 
	C159.135712,125.882362 158.934769,129.238388 158.733841,132.594421 
	C158.423828,132.529037 158.110489,132.501694 157.556732,132.595551 
	C157.319641,132.678726 157.284027,132.673874 157.140198,132.404846 
	C156.669601,132.183655 156.342834,132.231506 156.016052,132.279343 
z"/>
<path fill="#0D7BB6" opacity="1.000000" stroke="none" 
	d="
M157.329788,132.662170 
	C159.356018,136.330185 161.372101,140.014786 163.643661,144.247864 
	C163.264359,147.534714 162.629547,150.273071 161.994736,153.011414 
	C154.097809,146.700378 152.225220,140.924881 156.213043,133.278412 
	C156.895676,132.813934 157.089859,132.743912 157.284027,132.673874 
	C157.284027,132.673874 157.319641,132.678726 157.329788,132.662170 
z"/>
<path fill="#137CB6" opacity="1.000000" stroke="none" 
	d="
M158.894958,132.934097 
	C158.934769,129.238388 159.135712,125.882362 159.343292,122.415268 
	C162.197128,126.086174 164.617218,129.199173 167.423462,132.544479 
	C167.809601,132.776794 167.952896,133.043213 167.952896,133.043213 
	C167.952896,133.043213 167.983398,133.520203 167.622360,133.835846 
	C166.501633,136.441574 165.741928,138.731659 164.982224,141.021729 
	C163.006851,138.439072 161.031464,135.856415 158.894958,132.934097 
z"/>
<path fill="#1285BF" opacity="1.000000" stroke="none" 
	d="
M162.148560,153.318970 
	C162.629547,150.273071 163.264359,147.534714 163.944534,144.403290 
	C166.703430,146.900772 171.923065,147.956223 170.990219,153.513367 
	C170.758667,154.892731 170.397079,156.250229 170.095261,157.617783 
	C168.624817,157.207260 167.049637,157.003357 165.714157,156.326508 
	C164.446411,155.683960 163.429565,154.546417 162.148560,153.318970 
z"/>
<path fill="#A6ABAD" opacity="1.000000" stroke="none" 
	d="
M177.971603,124.969788 
	C180.714447,123.622765 183.457291,122.275742 186.713745,121.232361 
	C187.499603,124.064255 187.771866,126.592506 188.044113,129.120758 
	C185.604385,130.404602 183.164658,131.688446 180.324554,132.623016 
	C179.273331,129.839096 178.622467,127.404442 177.971603,124.969788 
z"/>
<path fill="#E4F6FC" opacity="1.000000" stroke="none" 
	d="
M200.875961,162.523972 
	C202.690369,163.633759 204.504761,164.743546 206.633026,165.934402 
	C208.994492,167.680695 211.042084,169.345932 213.414764,171.067657 
	C215.879059,173.857193 218.018280,176.590210 220.199722,179.679810 
	C219.781448,180.031067 219.320953,180.025757 218.402039,179.699768 
	C217.661072,179.165680 217.378525,178.952286 216.970398,178.437469 
	C214.950424,176.320877 213.056030,174.505707 211.161652,172.690521 
	C208.676376,170.809555 206.191101,168.928589 203.381149,166.935944 
	C201.242859,165.758179 199.429260,164.692078 197.339691,163.528214 
	C196.875259,163.326660 196.686752,163.222870 196.183258,163.044601 
	C196.085587,162.423569 196.302902,161.876999 197.089874,161.191422 
	C198.731689,161.542923 199.803818,162.033447 200.875961,162.523972 
z"/>
<path fill="#23A9DA" opacity="1.000000" stroke="none" 
	d="
M200.907440,162.042206 
	C199.803818,162.033447 198.731689,161.542923 197.314026,160.983795 
	C196.408798,160.439407 195.849121,159.963623 195.143402,158.812531 
	C195.332016,155.087875 195.666641,152.038528 196.001266,148.989197 
	C197.869324,149.802216 199.737381,150.615219 201.805023,151.696045 
	C201.649399,155.162704 201.294159,158.361588 200.907440,162.042206 
z"/>
<path fill="#1E9ED2" opacity="1.000000" stroke="none" 
	d="
M190.004852,156.990845 
	C183.172028,153.572235 183.070511,153.344650 184.624924,143.961884 
	C186.312912,144.473999 187.921616,144.962067 189.765350,146.185730 
	C190.001862,150.277847 190.003357,153.634338 190.004852,156.990845 
z"/>
<path fill="#1285BF" opacity="1.000000" stroke="none" 
	d="
M170.998779,136.003052 
	C177.461166,140.431732 178.439133,143.418640 174.795868,149.229080 
	C173.341415,148.343109 171.873657,147.449036 170.365875,145.903473 
	C170.550140,142.169006 170.774460,139.086029 170.998779,136.003052 
z"/>
<path fill="#20A4D7" opacity="1.000000" stroke="none" 
	d="
M190.314240,157.128937 
	C190.003357,153.634338 190.001862,150.277847 189.999878,146.464111 
	C191.868011,146.820526 193.736618,147.634155 195.803253,148.718491 
	C195.666641,152.038528 195.332016,155.087875 194.994537,158.575653 
	C193.535675,158.431732 192.079651,157.849380 190.314240,157.128937 
z"/>
<path fill="#7C8082" opacity="1.000000" stroke="none" 
	d="
M202.984314,110.968002 
	C204.457245,109.730606 205.930161,108.493217 207.699524,107.546722 
	C208.341888,110.590950 208.687805,113.344276 209.033752,116.097610 
	C207.720428,117.121147 206.407104,118.144691 204.413086,118.955986 
	C203.483032,116.151825 203.233673,113.559914 202.984314,110.968002 
z"/>
<path fill="#8F9395" opacity="1.000000" stroke="none" 
	d="
M191.959961,117.968582 
	C193.769852,116.797623 195.579727,115.626656 197.693756,114.759995 
	C198.343292,117.731956 198.688690,120.399605 199.034088,123.067261 
	C197.229706,124.268608 195.425339,125.469963 193.308075,126.328201 
	C192.650085,123.312920 192.305023,120.640747 191.959961,117.968582 
z"/>
<path fill="#1182BB" opacity="1.000000" stroke="none" 
	d="
M170.724991,135.874878 
	C170.774460,139.086029 170.550140,142.169006 170.162918,145.625488 
	C168.424057,144.532822 166.848129,143.066666 165.127197,141.311127 
	C165.741928,138.731659 166.501633,136.441574 167.634277,134.074524 
	C168.821884,134.580597 169.636551,135.163666 170.724991,135.874878 
z"/>
<path fill="#B3B7B9" opacity="1.000000" stroke="none" 
	d="
M177.650223,125.006821 
	C178.622467,127.404442 179.273331,129.839096 179.971832,132.666107 
	C177.809479,133.580978 175.599472,134.103485 173.446884,134.072876 
	C173.648529,131.273056 173.792740,129.026382 173.936951,126.779694 
	C175.067581,126.201080 176.198212,125.622467 177.650223,125.006821 
z"/>
<path fill="#888A8B" opacity="1.000000" stroke="none" 
	d="
M199.352615,122.949776 
	C198.688690,120.399605 198.343292,117.731956 197.998138,114.656876 
	C199.455383,113.234016 200.912415,112.218575 202.676880,111.085571 
	C203.233673,113.559914 203.483032,116.151825 204.094910,119.006012 
	C202.862015,120.456291 201.266571,121.644287 199.352615,122.949776 
z"/>
<path fill="#9B9E9F" opacity="1.000000" stroke="none" 
	d="
M191.633270,118.016296 
	C192.305023,120.640747 192.650085,123.312920 192.990356,126.410156 
	C191.564240,127.562271 190.142929,128.289322 188.382874,129.068573 
	C187.771866,126.592506 187.499603,124.064255 187.063324,121.141472 
	C188.368408,119.852631 189.837494,118.958321 191.633270,118.016296 
z"/>
<path fill="#888A8B" opacity="1.000000" stroke="none" 
	d="
M200.377304,109.279037 
	C198.939209,110.250496 197.501129,111.221962 195.381775,111.962257 
	C194.465149,109.179970 194.229752,106.628845 193.994354,104.077728 
	C195.070160,103.377693 196.145950,102.677650 197.847626,102.202202 
	C199.108124,104.710876 199.742722,106.994957 200.377304,109.279037 
z"/>
<path fill="#B3B7B9" opacity="1.000000" stroke="none" 
	d="
M172.896698,114.830780 
	C173.604843,114.337479 174.312988,113.844177 175.243500,113.222252 
	C176.014435,113.015572 176.562988,112.937508 177.538284,113.245438 
	C177.970535,116.382584 177.976044,119.133728 177.981567,121.884880 
	C176.858322,122.488716 175.735062,123.092545 174.302475,123.333267 
	C173.627655,120.257027 173.262177,117.543907 172.896698,114.830780 
z"/>
<path fill="#8F9395" opacity="1.000000" stroke="none" 
	d="
M193.679474,104.167770 
	C194.229752,106.628845 194.465149,109.179970 195.052383,111.999382 
	C194.179428,113.166794 192.954636,114.065910 191.109192,114.747337 
	C189.984421,112.015770 189.480270,109.501884 188.976135,106.988007 
	C190.438965,106.077942 191.901779,105.167870 193.679474,104.167770 
z"/>
<path fill="#9DA1A3" opacity="1.000000" stroke="none" 
	d="
M187.208221,117.145615 
	C186.103683,117.779518 184.999146,118.413422 183.250626,118.843094 
	C182.070953,116.092743 181.535278,113.546608 180.999603,111.000473 
	C182.459137,110.151466 183.918671,109.302475 185.688187,108.791275 
	C186.401520,111.801254 186.804871,114.473442 187.208221,117.145615 
z"/>
<path fill="#A6ABAD" opacity="1.000000" stroke="none" 
	d="
M180.696518,111.030045 
	C181.535278,113.546608 182.070953,116.092743 182.931763,118.898727 
	C181.715897,120.024673 180.174896,120.890762 178.307739,121.820862 
	C177.976044,119.133728 177.970535,116.382584 177.942581,113.154282 
	C178.744583,112.137955 179.569000,111.598785 180.696518,111.030045 
z"/>
<path fill="#9B9E9F" opacity="1.000000" stroke="none" 
	d="
M187.520355,117.077682 
	C186.804871,114.473442 186.401520,111.801254 185.998016,108.712471 
	C186.772720,107.884323 187.547562,107.472786 188.649277,107.024628 
	C189.480270,109.501884 189.984421,112.015770 190.785278,114.796906 
	C189.998810,115.712692 188.915649,116.361214 187.520355,117.077682 
z"/>
<path fill="#7C8082" opacity="1.000000" stroke="none" 
	d="
M200.677429,109.177567 
	C199.742722,106.994957 199.108124,104.710876 198.169556,102.160767 
	C199.048233,101.013969 200.230911,100.133202 201.720093,99.156677 
	C202.779053,101.328598 203.531509,103.596275 204.645340,105.936256 
	C203.663666,107.031075 202.320602,108.053589 200.677429,109.177567 
z"/>
<path fill="#747677" opacity="1.000000" stroke="none" 
	d="
M209.323517,115.955170 
	C208.687805,113.344276 208.341888,110.590950 207.992310,107.406616 
	C208.808105,106.074760 209.627548,105.173912 210.725037,104.142372 
	C211.506592,106.531586 212.010117,109.051498 212.805725,111.821396 
	C211.936325,113.318504 210.774811,114.565620 209.323517,115.955170 
z"/>
<path fill="#BCC4C7" opacity="1.000000" stroke="none" 
	d="
M173.676666,126.670113 
	C173.792740,129.026382 173.648529,131.273056 173.198090,133.792175 
	C171.491791,133.683716 170.091705,133.302811 168.322266,132.982544 
	C167.952896,133.043213 167.809601,132.776794 167.783020,132.628708 
	C169.166504,130.229721 170.576553,127.978821 172.215515,125.354088 
	C172.444412,124.980255 172.916153,124.962135 172.916153,124.962135 
	C173.082901,125.494934 173.249634,126.027733 173.676666,126.670113 
z"/>
<path fill="#137CB6" opacity="1.000000" stroke="none" 
	d="
M157.140198,132.404846 
	C157.089859,132.743912 156.895676,132.813934 156.399261,132.947006 
	C156.097031,133.010071 156.057068,132.644516 156.036560,132.461929 
	C156.342834,132.231506 156.669601,132.183655 157.140198,132.404846 
z"/>
<path fill="#0C0C0C" opacity="1.000000" stroke="none" 
	d="
M57.022644,185.591827 
	C57.524517,187.192154 57.663956,188.786682 57.803394,190.381195 
	C57.262436,190.366974 56.721478,190.352753 56.180523,190.338531 
	C56.340420,188.754364 56.500313,187.170197 57.022644,185.591827 
z"/>
<path fill="#0C0C0C" opacity="1.000000" stroke="none" 
	d="
M54.227901,192.582611 
	C52.888313,192.800293 51.813320,192.800293 50.342468,192.800293 
	C51.912102,189.563217 53.133301,188.452591 54.227901,192.582611 
z"/>
<path fill="#0C0C0C" opacity="1.000000" stroke="none" 
	d="
M50.416344,184.891891 
	C51.621441,184.988464 52.607761,185.324127 53.594086,185.659775 
	C53.381638,186.116470 53.169193,186.573166 52.956749,187.029861 
	C52.037022,186.396912 51.117298,185.763947 50.416344,184.891891 
z"/>
<path fill="#34CAF4" opacity="1.000000" stroke="none" 
	d="
M211.004669,173.047882 
	C213.056030,174.505707 214.950424,176.320877 216.934601,178.709808 
	C217.002716,179.465118 216.981049,179.646698 216.959366,179.828293 
	C215.263977,179.861618 213.568604,179.894943 211.450302,179.907120 
	C210.967499,177.725739 210.907593,175.565491 211.004669,173.047882 
z"/>
<path fill="#2FBEEB" opacity="1.000000" stroke="none" 
	d="
M217.263107,179.864410 
	C216.981049,179.646698 217.002716,179.465118 217.060181,179.011215 
	C217.378525,178.952286 217.661072,179.165680 218.060501,179.620590 
	C217.973892,179.874893 217.770370,179.887695 217.263107,179.864410 
z"/>
<path fill="#E4F6FC" opacity="1.000000" stroke="none" 
	d="
M171.511658,189.759720 
	C169.703857,189.914856 168.150513,189.806076 166.597168,189.697296 
	C166.752472,188.472092 166.478088,186.802231 167.170654,186.132980 
	C168.058258,185.275223 169.723923,185.222626 171.054352,184.823105 
	C171.291611,186.380661 171.528870,187.938232 171.511658,189.759720 
z"/>
<path fill="#E4F6FC" opacity="1.000000" stroke="none" 
	d="
M92.415085,184.815674 
	C93.977203,185.374939 95.345299,186.278687 96.713394,187.182449 
	C95.711761,188.628189 94.710129,190.073929 93.708488,191.519669 
	C93.212685,191.279892 92.716873,191.040115 92.221069,190.800339 
	C92.221069,188.920273 92.221069,187.040222 92.415085,184.815674 
z"/>
<path fill="#BBBBBB" opacity="1.000000" stroke="none" 
	d="
M173.063904,124.743073 
	C172.916153,124.962135 172.444412,124.980255 172.208557,124.994934 
	C171.180664,125.265152 170.388626,125.520691 169.248688,125.491714 
	C168.605835,122.491020 168.310852,119.774841 168.015869,117.058670 
	C169.424820,116.368126 170.833740,115.677589 172.569687,114.908913 
	C173.262177,117.543907 173.627655,120.257027 173.989136,123.387146 
	C173.727295,124.044098 173.469482,124.284058 173.063904,124.743073 
z"/>
<path fill="#C6C6C6" opacity="1.000000" stroke="none" 
	d="
M167.642456,117.083717 
	C168.310852,119.774841 168.605835,122.491020 168.950775,125.607956 
	C166.764160,127.726791 164.741409,127.813873 163.567078,124.906342 
	C162.020584,121.077385 162.898636,118.217987 167.642456,117.083717 
z"/>
</svg>